<svg width="32" height="32" viewBox="0 0 32 32" fill="none" xmlns="http://www.w3.org/2000/svg">
<path fill-rule="evenodd" clip-rule="evenodd" d="M16 32C24.8366 32 32 24.8366 32 16C32 7.16344 24.8366 0 16 0C7.16344 0 0 7.16344 0 16C0 24.8366 7.16344 32 16 32ZM13.968 26V17.2497H11V13.6302H13.968V10.8716C13.968 7.73392 15.7123 6 18.3836 6C19.6621 6 21 6.24456 21 6.24456V9.326H19.5251C18.0731 9.326 17.621 10.292 17.621 11.2825V13.6302H20.863L20.3447 17.2497H17.621V26H13.968Z" fill="white" fill-opacity="0.8"/>
</svg>
