<svg width="32" height="32" viewBox="0 0 32 32" fill="none" xmlns="http://www.w3.org/2000/svg">
<path fill-rule="evenodd" clip-rule="evenodd" d="M16 32C24.8366 32 32 24.8366 32 16C32 7.16344 24.8366 0 16 0C7.16344 0 0 7.16344 0 16C0 24.8366 7.16344 32 16 32ZM10 8C8.89543 8 8 8.89543 8 10V13H11.9996C12.9118 11.7856 14.3642 11 16 11C17.6358 11 19.0882 11.7856 20.0004 13H24V10C24 8.89543 23.1046 8 22 8H10ZM24 15H20.9C20.9656 15.3231 21 15.6575 21 16C21 18.7614 18.7614 21 16 21C13.2386 21 11 18.7614 11 16C11 15.6575 11.0344 15.3231 11.1 15H8V22C8 23.1046 8.89543 24 10 24H22C23.1046 24 24 23.1046 24 22V15ZM13 16C13 14.3431 14.3431 13 16 13C17.6569 13 19 14.3431 19 16C19 17.6569 17.6569 19 16 19C14.3431 19 13 17.6569 13 16ZM23 10.5C23 11.3284 22.3284 12 21.5 12C20.6716 12 20 11.3284 20 10.5C20 9.67157 20.6716 9 21.5 9C22.3284 9 23 9.67157 23 10.5Z" fill="white" fill-opacity="0.8"/>
</svg>
