<svg width="76" height="76" viewBox="0 0 76 76" fill="none" xmlns="http://www.w3.org/2000/svg">
<g clip-path="url(#clip0)">
<path d="M28.9235 76H-6.20117V50.8744C-6.20117 40.7081 -5.30437 32.6876 -3.51331 26.8128C-1.72224 20.938 1.59136 15.6661 6.42496 10.9997C11.2586 6.33333 17.4247 2.6676 24.9234 0L31.7988 14.5008C24.7992 16.834 19.7782 20.0843 16.7356 24.2516C13.6931 28.4189 12.0895 33.9593 11.9223 40.8753H28.9235V76Z" fill="#95D700"/>
<path d="M28.9235 76H-6.20117V50.8744C-6.20117 40.7081 -5.30437 32.6876 -3.51331 26.8128C-1.72224 20.938 1.59136 15.6661 6.42496 10.9997C11.2586 6.33333 17.4247 2.6676 24.9234 0L31.7988 14.5008C24.7992 16.834 19.7782 20.0843 16.7356 24.2516C13.6931 28.4189 12.0895 33.9593 11.9223 40.8753H28.9235V76Z" fill="#91D100"/>
<path d="M28.9235 76H-6.20117V50.8744C-6.20117 40.7081 -5.30437 32.6876 -3.51331 26.8128C-1.72224 20.938 1.59136 15.6661 6.42496 10.9997C11.2586 6.33333 17.4247 2.6676 24.9234 0L31.7988 14.5008C24.7992 16.834 19.7782 20.0843 16.7356 24.2516C13.6931 28.4189 12.0895 33.9593 11.9223 40.8753H28.9235V76Z" fill="#8FD700"/>
<path d="M74.777 76H39.6523V50.8744C39.6523 40.7081 40.5491 32.6876 42.3402 26.8128C44.1313 20.938 47.4449 15.6661 52.2785 10.9997C57.1121 6.33333 63.2757 2.6676 70.7769 0L77.6523 14.5008C70.6527 16.834 65.6317 20.0843 62.5891 24.2516C59.5466 28.4189 57.943 33.9593 57.7758 40.8753H74.777V76Z" fill="#95D700"/>
<path d="M74.777 76H39.6523V50.8744C39.6523 40.7081 40.5491 32.6876 42.3402 26.8128C44.1313 20.938 47.4449 15.6661 52.2785 10.9997C57.1121 6.33333 63.2757 2.6676 70.7769 0L77.6523 14.5008C70.6527 16.834 65.6317 20.0843 62.5891 24.2516C59.5466 28.4189 57.943 33.9593 57.7758 40.8753H74.777V76Z" fill="#91D100"/>
<path d="M74.777 76H39.6523V50.8744C39.6523 40.7081 40.5491 32.6876 42.3402 26.8128C44.1313 20.938 47.4449 15.6661 52.2785 10.9997C57.1121 6.33333 63.2757 2.6676 70.7769 0L77.6523 14.5008C70.6527 16.834 65.6317 20.0843 62.5891 24.2516C59.5466 28.4189 57.943 33.9593 57.7758 40.8753H74.777V76Z" fill="#8FD700"/>
</g>
<defs>
<clipPath id="clip0">
<rect width="76" height="76" fill="white"/>
</clipPath>
</defs>
</svg>
