<svg width="48" height="48" viewBox="0 0 48 48" fill="none" xmlns="http://www.w3.org/2000/svg">
<path opacity="0.5" fill-rule="evenodd" clip-rule="evenodd" d="M40.9706 40.9706C50.3431 31.598 50.3431 16.402 40.9706 7.02944C31.598 -2.34315 16.402 -2.34315 7.02944 7.02944C-2.34315 16.402 -2.34315 31.598 7.02944 40.9706C16.402 50.3431 31.598 50.3431 40.9706 40.9706ZM26.725 34.1806C26.725 34.6969 26.5415 35.1385 26.1747 35.5054C25.8214 35.8587 25.3866 36.0421 24.8703 36.0557C24.3539 36.0421 23.9123 35.8587 23.5454 35.5054C23.1922 35.1385 23.0087 34.6969 22.9951 34.1806V18.3033L18.022 23.2764C17.6687 23.6297 17.2339 23.8131 16.7176 23.8267C16.2013 23.8131 15.7597 23.6297 15.3928 23.2764C15.0395 22.9095 14.8561 22.4679 14.8425 21.9516C14.8561 21.4353 15.0395 21.0005 15.3928 20.6472L23.5454 12.4945C23.9123 12.1276 24.3539 11.9442 24.8703 11.9442C25.3866 11.9442 25.8214 12.1276 26.1747 12.4945C26.1883 12.5081 26.2018 12.5285 26.2154 12.5557L34.3273 20.6472C34.6942 21.0005 34.8776 21.4353 34.8776 21.9516C34.8776 22.4679 34.6942 22.9095 34.3273 23.2764C33.974 23.6297 33.5392 23.8131 33.0229 23.8267C32.5066 23.8131 32.065 23.6297 31.6981 23.2764L26.725 18.3033V34.1806Z" fill="#D8D8D8"/>
</svg>
