<svg width="48" height="48" viewBox="0 0 48 48" fill="none" xmlns="http://www.w3.org/2000/svg">
<g opacity="1">
<path fill-rule="evenodd" clip-rule="evenodd" d="M24 48C37.2548 48 48 37.2548 48 24C48 10.7452 37.2548 0 24 0C10.7452 0 0 10.7452 0 24C0 37.2548 10.7452 48 24 48ZM18.7281 33.1256C18.363 33.4907 17.921 33.6733 17.4022 33.6733C16.9026 33.6733 16.4654 33.4955 16.0907 33.14C15.7352 32.7653 15.5527 32.3233 15.543 31.8141C15.5527 31.3049 15.7352 30.8629 16.0907 30.4882L27.3176 19.2613L20.2846 19.2613C19.785 19.2613 19.3478 19.0835 18.9731 18.728C18.6176 18.3533 18.4351 17.9113 18.4254 17.4021C18.4351 16.8929 18.6176 16.4509 18.9731 16.0762C19.3478 15.7207 19.785 15.543 20.2846 15.543H31.8142C32.333 15.543 32.775 15.7255 33.1401 16.0906C33.5052 16.4557 33.6829 16.8929 33.6733 17.4021C33.6733 17.4213 33.6685 17.4454 33.6589 17.4742L33.6733 28.9317C33.6829 29.4409 33.5052 29.8781 33.1401 30.2432C32.775 30.6083 32.333 30.7909 31.8142 30.7909C31.3146 30.7909 30.8774 30.6131 30.5027 30.2576C30.1472 29.8829 29.9646 29.4409 29.955 28.9317L29.955 21.8987L18.7281 33.1256Z" fill="#151515"/>
<path fill-rule="evenodd" clip-rule="evenodd" d="M24 48C37.2548 48 48 37.2548 48 24C48 10.7452 37.2548 0 24 0C10.7452 0 0 10.7452 0 24C0 37.2548 10.7452 48 24 48ZM18.7281 33.1256C18.363 33.4907 17.921 33.6733 17.4022 33.6733C16.9026 33.6733 16.4654 33.4955 16.0907 33.14C15.7352 32.7653 15.5527 32.3233 15.543 31.8141C15.5527 31.3049 15.7352 30.8629 16.0907 30.4882L27.3176 19.2613L20.2846 19.2613C19.785 19.2613 19.3478 19.0835 18.9731 18.728C18.6176 18.3533 18.4351 17.9113 18.4254 17.4021C18.4351 16.8929 18.6176 16.4509 18.9731 16.0762C19.3478 15.7207 19.785 15.543 20.2846 15.543H31.8142C32.333 15.543 32.775 15.7255 33.1401 16.0906C33.5052 16.4557 33.6829 16.8929 33.6733 17.4021C33.6733 17.4213 33.6685 17.4454 33.6589 17.4742L33.6733 28.9317C33.6829 29.4409 33.5052 29.8781 33.1401 30.2432C32.775 30.6083 32.333 30.7909 31.8142 30.7909C31.3146 30.7909 30.8774 30.6131 30.5027 30.2576C30.1472 29.8829 29.9646 29.4409 29.955 28.9317L29.955 21.8987L18.7281 33.1256Z" fill="#07150A"/>
</g>
</svg>
