<svg width="335" height="120" viewBox="0 0 335 120" fill="none" xmlns="http://www.w3.org/2000/svg">
<path d="M53.0703 65.3373L53.2546 65.5214C53.8074 65.7054 54.1759 65.8895 54.7287 65.8895C56.0186 64.7852 59.5197 63.4968 64.3107 63.4968C68.7331 63.4968 73.7084 64.049 74.6297 65.1533C74.9983 64.9692 75.1825 64.6011 75.1825 64.233C75.1825 63.8649 74.9983 63.4968 74.4455 63.3128C72.2342 62.3925 68.5489 62.2085 64.495 62.2085C59.5197 62.3925 54.5445 63.8649 53.0703 65.3373Z" fill="black"/>
<path d="M62.8353 75.8282C61.3611 73.0675 56.7544 70.8589 55.4645 69.2025C54.9117 69.0184 54.5432 68.8344 54.1746 68.8344C53.8061 68.6503 53.4376 68.4663 52.8848 68.2822C53.2533 69.0184 53.8061 69.7546 54.7274 70.6749C55.6488 71.5951 57.86 72.8835 59.5184 74.1718C61.1768 75.6442 62.651 77.1166 62.8353 79.6933L63.9409 78.9571C64.1251 78.9571 63.5723 77.1166 62.8353 75.8282Z" fill="black"/>
<path d="M33.5373 47.1167C32.8002 47.6689 32.4316 48.221 32.4316 48.7732C32.4316 49.3253 32.6159 49.6934 33.1687 50.2456C37.9597 46.7486 49.7529 44.9081 63.7573 44.9081C77.3931 44.9081 89.1863 46.7486 93.9773 50.0615C94.3458 49.6934 94.7144 49.1413 94.7144 48.7732C94.7144 48.4051 94.5301 48.221 94.1616 47.8529C93.9773 47.6689 93.6088 47.3008 93.2402 47.1167C86.6066 44.5401 74.0763 43.4358 63.7573 43.4358C53.0697 43.2517 39.9866 44.5401 33.5373 47.1167Z" fill="black"/>
<path d="M43.6719 53.9261C44.5932 54.1102 45.5146 54.1102 46.4359 54.4783C48.6471 53.1899 52.3325 52.4537 55.0965 52.0856C58.0448 51.7175 61.1774 51.5335 63.7571 51.5335C70.5751 51.5335 78.6829 51.9016 82.184 53.558C82.7368 53.1899 82.9211 52.8218 82.9211 52.4537C82.9211 52.0856 82.184 51.7175 81.8154 51.3494H81.6312C76.8402 50.2451 69.6537 50.0611 63.7571 50.0611C56.2021 49.877 46.8044 51.3494 43.6719 53.9261Z" fill="black"/>
<path d="M49.0176 27.9756V28.3436C49.0176 28.3436 49.0176 28.3437 49.0176 28.5277C50.676 29.816 52.5187 31.4725 55.0984 33.6811C56.204 34.6013 58.5995 36.6259 61.9164 40.1228L61.3636 35.3375C61.1793 33.8651 60.6265 32.7608 59.8894 32.0246C59.1523 31.1044 58.4153 30.3682 56.3883 29.632C53.9928 28.7117 50.8603 27.9756 49.2018 27.7915C49.2018 27.9756 49.0176 27.9756 49.0176 27.9756Z" fill="black"/>
<path d="M77.3925 21.9019C77.3925 21.9019 77.2082 21.9019 77.3925 21.9019C73.3386 23.1902 69.2847 25.7669 67.0734 27.9755C65.0465 29.816 63.7566 32.3927 63.3881 35.7055C63.0195 38.0982 63.0195 42.3313 63.0195 42.3313V79.8773H64.3094V44.7239C64.3094 43.6196 64.3094 42.5154 64.8622 40.6749C65.5993 37.9141 67.8105 34.4172 70.206 31.2884C72.97 27.7914 75.5498 25.0307 77.761 22.6381C77.9453 22.454 77.9453 22.0859 77.3925 21.9019Z" fill="black"/>
<path d="M54.1746 68.8341C56.7543 69.7543 60.624 70.4905 64.3093 70.4905C72.7857 70.4905 77.2081 68.65 77.2081 66.0734C77.2081 64.785 75.9182 63.8648 74.0756 63.3126C74.8126 63.6807 75.1812 64.0488 75.1812 64.4169C75.1812 66.0734 70.5745 66.8096 64.1251 66.8096C61.9138 66.8096 59.1498 66.6255 57.3071 66.2574C53.069 65.5212 50.1207 64.2329 48.0937 62.5764C46.8038 61.2881 45.8825 60.3678 45.514 58.8954C44.7769 58.7114 44.0398 58.5273 43.3027 58.5273C44.0398 62.7605 48.278 66.6255 54.1746 68.8341Z" fill="black"/>
<path d="M81.6317 51.1655C81.4474 51.1655 81.2631 51.1655 81.2631 51.1655C81.2631 51.1655 81.4474 51.1655 81.6317 51.1655C82.3687 51.5336 82.9215 51.9017 82.9215 52.2698C82.9215 53.9262 77.762 54.6624 70.5756 55.0305C70.0227 55.0305 65.416 55.2146 63.7576 55.2146C46.6207 55.2146 32.6163 52.2698 32.6163 48.7728C32.6163 48.2207 33.3533 47.4845 34.0904 46.9323C31.3264 48.0366 29.668 49.325 29.668 50.7974C29.668 56.3188 44.9622 60.3679 63.7576 60.3679C66.1531 60.3679 69.2857 60.1839 69.4699 60.1839C79.4204 59.8158 87.1597 57.9753 86.9754 54.4784C86.9754 53.006 84.9485 51.9017 81.6317 51.1655ZM95.4518 48.0366C94.7147 47.6685 93.7934 47.1164 92.5035 46.7483C93.0563 46.9323 93.6091 47.4845 93.9776 47.8526C94.3462 48.2207 94.5304 48.5888 94.5304 48.7728C94.5304 49.6931 93.2406 50.7974 91.3979 51.5336V56.3188C91.3979 56.3188 91.3979 56.5029 91.5822 56.5029C95.4518 55.0305 97.8473 53.19 97.8473 50.7974C97.663 49.8771 96.9259 48.7728 95.4518 48.0366Z" fill="black"/>
<path d="M92.8708 54.1102C92.8708 55.3986 92.318 56.5029 91.5809 56.5029C90.8438 56.5029 90.291 55.3986 90.291 54.1102C90.291 52.8219 90.8438 51.7176 91.5809 51.7176C92.1337 51.5335 92.8708 52.6378 92.8708 54.1102Z" fill="black"/>
<path d="M116.827 73.8036C116.827 72.5153 115.722 71.2269 114.247 71.2269H111.299C110.193 71.2269 109.272 70.3067 109.272 69.2024C109.272 67.9141 110.193 67.1779 111.299 67.1779H116.643V65.1533H106.877C105.587 65.1533 104.297 66.0736 104.297 67.546V71.0429C104.297 72.5153 105.587 73.6196 106.877 73.6196H109.825C110.931 73.6196 111.852 74.3558 111.852 75.6441C111.852 76.7484 110.931 77.6687 109.825 77.6687H104.297V79.6932H114.247C115.722 79.6932 116.827 78.5889 116.827 77.3006V73.8036Z" fill="black"/>
<path d="M148.891 65.1533H138.94C137.466 65.1533 136.545 66.2576 136.545 67.546V77.3006C136.545 78.5889 137.466 79.6932 138.94 79.6932H151.102V77.6687H143.731C142.442 77.6687 141.52 76.7484 141.52 75.276V74.5398H151.471V67.546C151.471 66.0736 150.365 65.1533 148.891 65.1533ZM146.495 70.6748V72.5153H141.52V69.7545C141.52 69.0184 141.889 68.2822 142.257 67.9141C142.81 67.3619 143.363 67.1779 143.916 67.1779C144.653 67.1779 145.206 67.3619 145.758 67.9141C146.311 68.4662 146.495 69.0183 146.495 69.5705V70.6748V70.6748Z" fill="black"/>
<path d="M126.96 60.7361H121.984V77.3005C121.984 78.5888 123.09 79.6931 124.38 79.6931H131.751V77.6686H129.171C127.881 77.6686 126.775 76.5643 126.775 75.276V67.1778H131.751V65.1533H126.775V60.7361H126.96Z" fill="black"/>
<path d="M164.001 67.1779H170.635V65.1533H159.21C157.92 65.1533 156.814 66.2576 156.814 67.546V77.3006C156.814 78.4048 157.736 79.6932 159.21 79.6932H170.635V77.6687H164.001C162.711 77.6687 161.605 76.7484 161.605 75.276V69.5705C161.605 67.9141 162.895 67.1779 164.001 67.1779Z" fill="black"/>
<path d="M99.3209 77.3006V67.546C99.3209 66.2576 98.2153 65.1533 96.7412 65.1533H86.7907C85.3165 65.1533 84.2109 66.2576 84.2109 67.546V77.3006C84.2109 78.5889 85.3165 79.6932 86.7907 79.6932H96.7412C98.2153 79.6932 99.3209 78.5889 99.3209 77.3006ZM94.53 75.092C94.53 75.8282 94.1614 76.3803 93.7929 76.7484C93.4244 77.1165 92.6873 77.4846 91.9502 77.4846C91.2131 77.4846 90.6603 77.1165 90.1075 76.7484C89.739 76.3803 89.3705 75.6441 89.3705 74.9079V69.3864C89.3705 68.8343 89.739 68.0981 90.1075 67.73C90.4761 67.3619 91.2131 66.9938 91.9502 66.9938C92.6873 66.9938 93.4244 67.3619 93.7929 67.73C94.1614 68.2822 94.53 68.8343 94.53 69.3864V75.092Z" fill="black"/>
<path d="M63.0195 94.4173V89.448H66.3364V90.3682H63.9409V94.4173H63.0195Z" fill="black"/>
<path d="M70.2048 93.6811C70.7576 93.6811 71.1261 93.497 71.3104 93.1289C71.6789 92.7608 71.6789 92.3928 71.6789 91.8406C71.6789 91.2885 71.4946 90.9204 71.3104 90.5523C71.1261 90.1842 70.7576 90.1842 70.2048 90.1842C69.6519 90.1842 69.2834 90.3682 69.0991 90.7363C68.7306 91.1044 68.7306 91.4725 68.7306 92.0247C68.7306 92.5768 68.9149 92.9449 69.0991 93.313C69.2834 93.497 69.6519 93.6811 70.2048 93.6811ZM67.625 96.8099V89.448H68.5463V90.1842C68.7306 90.0001 68.9149 89.632 69.2834 89.448C69.6519 89.2639 70.0205 89.2639 70.389 89.2639C71.1261 89.2639 71.6789 89.448 72.0474 90.0001C72.416 90.5523 72.7845 91.1044 72.7845 91.8406C72.7845 92.5768 72.6002 93.129 72.0474 93.6811C71.6789 94.2332 70.9418 94.4173 70.2048 94.4173C69.8362 94.4173 69.4677 94.4173 69.2834 94.2332C68.9149 94.0492 68.7306 93.8651 68.5463 93.6811V96.8099H67.625Z" fill="black"/>
<path d="M74.6284 96.81C74.4441 96.81 74.2598 96.81 74.0756 96.81V95.8897C74.2598 95.8897 74.4441 95.8897 74.6284 95.8897C74.8126 95.8897 74.9969 95.8897 75.1812 95.7057C75.3654 95.5216 75.3654 95.3376 75.5497 95.1535L75.9183 94.4173L73.707 89.448H74.8126L76.2868 93.313L77.5767 89.448H78.6823L76.2868 95.5216C76.1025 95.8897 75.9183 96.2578 75.734 96.4419C75.5497 96.81 75.1812 96.81 74.6284 96.81Z" fill="black"/>
<path d="M79.9707 94.4173V89.448H84.3931V94.4173H83.4718V90.3682H81.0763V94.4173H79.9707Z" fill="black"/>
<path d="M86.4199 94.4173V89.448H90.6581V94.4173H89.7368V90.3682H87.3413V94.4173H86.4199Z" fill="black"/>
<path d="M94.3446 93.6811C94.7132 93.6811 95.0817 93.4971 95.4502 93.313C95.6345 93.129 95.8188 92.7609 95.8188 92.2087V92.0247H95.6345C94.1604 92.0247 93.4233 92.3928 93.4233 92.9449C93.4233 93.129 93.6076 93.313 93.7918 93.4971C93.7918 93.6811 93.9761 93.6811 94.3446 93.6811ZM94.1604 94.4173C93.9761 94.4173 93.7918 94.4173 93.6076 94.4173C93.4233 94.4173 93.239 94.2333 93.0548 94.2333C92.8705 94.0492 92.6862 94.0492 92.6862 93.6811C92.502 93.4971 92.502 93.313 92.502 92.9449C92.502 92.5768 92.502 92.3928 92.6862 92.2087C92.8705 92.0247 93.0548 91.8406 93.239 91.6566C93.4233 91.4725 93.7918 91.4725 93.9761 91.4725C94.3446 91.4725 94.5289 91.2885 94.8974 91.2885C95.266 91.2885 95.4502 91.2885 95.8188 91.2885V91.1044C95.8188 90.7363 95.6345 90.5523 95.4502 90.3682C95.266 90.1842 94.8974 90.1842 94.5289 90.1842C93.9761 90.1842 93.6076 90.3682 93.0548 90.7363L92.6862 90.1842C93.239 89.632 93.7918 89.448 94.7132 89.448C95.4503 89.448 95.8188 89.6321 96.1873 90.0002C96.5559 90.3682 96.7401 90.7363 96.7401 91.2885V93.4971C96.7401 93.8652 96.7401 94.2333 96.7401 94.4173H95.8188C95.8188 94.2333 95.8188 93.8652 95.8188 93.6811C95.4502 94.2333 94.8974 94.4173 94.1604 94.4173Z" fill="black"/>
<path d="M101.533 94.4173V89.448H102.455V91.6566H102.639L104.666 89.448H105.956L103.56 91.8406L106.14 94.4173H104.85L102.639 92.0247H102.455V94.4173H101.533Z" fill="black"/>
<path d="M108.165 93.129C108.533 93.4971 108.902 93.6811 109.27 93.6811C109.823 93.6811 110.192 93.4971 110.376 93.129C110.745 92.7609 110.745 92.3928 110.745 91.8406C110.745 91.2885 110.56 90.9204 110.376 90.5523C110.008 90.1842 109.639 90.0002 109.27 90.0002C108.718 90.0002 108.349 90.1842 108.165 90.5523C107.796 90.9204 107.796 91.2885 107.796 91.8406C107.796 92.3928 107.981 92.7609 108.165 93.129ZM111.297 93.8652C110.745 94.4173 110.192 94.6014 109.455 94.6014C108.718 94.6014 108.165 94.4173 107.612 93.8652C107.059 93.313 106.875 92.7609 106.875 92.0247C106.875 91.2885 107.059 90.7363 107.612 90.1842C108.165 89.632 108.718 89.448 109.455 89.448C110.192 89.448 110.745 89.632 111.297 90.1842C111.85 90.7363 112.035 91.2885 112.035 92.0247C112.035 92.7609 111.85 93.313 111.297 93.8652Z" fill="black"/>
<path d="M113.693 94.4173V89.448H115.168L116.642 93.129L118.3 89.448H119.59V94.4173H118.669V90.7363L117.01 94.4173H116.457L114.615 90.7363V94.4173H113.693Z" fill="black"/>
<path d="M121.617 94.4173V89.448H126.04V94.4173H124.934V90.3682H122.723V94.4173H121.617Z" fill="black"/>
<path d="M129.542 93.6811C129.91 93.6811 130.279 93.4971 130.648 93.313C130.832 93.129 131.016 92.7609 131.016 92.2087V92.0247H130.832C129.358 92.0247 128.621 92.3928 128.621 92.9449C128.621 93.129 128.805 93.313 128.989 93.4971C129.173 93.6811 129.358 93.6811 129.542 93.6811ZM129.358 94.4173C129.173 94.4173 128.989 94.4173 128.805 94.4173C128.621 94.4173 128.436 94.2333 128.252 94.2333C128.068 94.0492 127.883 94.0492 127.883 93.6811C127.699 93.4971 127.699 93.313 127.699 92.9449C127.699 92.5768 127.699 92.3928 127.883 92.2087C128.068 92.0247 128.252 91.8406 128.436 91.6566C128.621 91.4725 128.989 91.4725 129.173 91.4725C129.542 91.4725 129.726 91.2885 130.095 91.2885C130.463 91.2885 130.648 91.2885 131.016 91.2885V91.1044C131.016 90.7363 130.832 90.5523 130.648 90.3682C130.463 90.1842 130.279 90.1842 129.91 90.1842C129.358 90.1842 128.989 90.3682 128.436 90.7363L127.883 90.1842C128.436 89.632 128.989 89.448 129.91 89.448C130.648 89.448 131.016 89.6321 131.385 90.0002C131.753 90.3682 131.937 90.7363 131.937 91.2885V93.4971C131.937 93.8652 131.937 94.2333 131.937 94.4173H131.016C131.016 94.2333 131.016 93.8652 131.016 93.6811C130.648 94.2333 130.095 94.4173 129.358 94.4173Z" fill="black"/>
<path d="M133.963 94.4173V89.448H134.884V91.4725H137.28V89.448H138.201V94.4173H137.28V92.2087H134.884V94.4173H133.963Z" fill="black"/>
<path d="M140.23 94.4173V89.448H141.336V92.9449L143.732 89.448H144.837V94.4173H143.916V90.9204L141.336 94.4173H140.23Z" fill="black"/>
<path d="M150.178 88.1595C149.994 88.3436 149.625 88.5276 149.073 88.5276C148.704 88.5276 148.335 88.3436 147.967 88.1595C147.783 87.9755 147.598 87.6074 147.414 87.2393H147.967C147.967 87.4233 148.151 87.6074 148.335 87.7914C148.52 87.9755 148.704 87.9754 149.073 87.9754C149.257 87.9754 149.625 87.9755 149.81 87.7914C149.994 87.6074 150.178 87.4233 150.178 87.2393L150.731 87.4233C150.547 87.6074 150.362 87.9755 150.178 88.1595ZM146.861 94.4172V89.6319H147.783V93.1288L150.362 89.6319H151.468V94.4172H150.547V90.9202L148.151 94.4172H146.861Z" fill="black"/>
<path d="M220.753 50.4293C223.517 50.4293 225.913 48.2207 225.913 45.2759C225.913 42.5152 223.702 40.1226 220.753 40.1226C217.989 40.1226 215.594 42.3312 215.594 45.2759C215.778 48.0367 217.989 50.4293 220.753 50.4293Z" fill="#91D400"/>
<path d="M236.23 50.4293C238.994 50.4293 241.389 48.2207 241.389 45.2759C241.389 42.5152 239.178 40.1226 236.23 40.1226C233.466 40.1226 231.07 42.3312 231.07 45.2759C231.07 48.0367 233.466 50.4293 236.23 50.4293Z" fill="#91D400"/>
<path d="M251.712 50.4293C254.476 50.4293 256.872 48.2207 256.872 45.2759C256.872 42.5152 254.661 40.1226 251.712 40.1226C248.948 40.1226 246.553 42.3312 246.553 45.2759C246.553 48.0367 248.764 50.4293 251.712 50.4293Z" fill="#91D400"/>
<path d="M267.007 50.4293C269.771 50.4293 272.167 48.2207 272.167 45.2759C272.167 42.5152 269.955 40.1226 267.007 40.1226C264.243 40.1226 261.848 42.3312 261.848 45.2759C262.032 48.0367 264.243 50.4293 267.007 50.4293Z" fill="#91D400"/>
<path d="M282.484 50.4293C285.248 50.4293 287.643 48.2207 287.643 45.2759C287.643 42.5152 285.432 40.1226 282.484 40.1226C279.72 40.1226 277.324 42.3312 277.324 45.2759C277.324 48.0367 279.72 50.4293 282.484 50.4293Z" fill="black"/>
<path d="M297.96 50.4293C300.724 50.4293 303.12 48.2207 303.12 45.2759C303.12 42.5152 300.909 40.1226 297.96 40.1226C295.196 40.1226 292.801 42.3312 292.801 45.2759C292.801 48.0367 295.012 50.4293 297.96 50.4293Z" fill="black"/>
<path d="M218.726 72.5152H220.937C222.964 72.5152 223.885 71.779 223.885 70.4907C223.885 69.7545 223.701 69.3864 223.148 69.0183C222.595 68.6502 221.858 68.4661 220.937 68.4661H218.726V72.5152V72.5152ZM216.33 74.5398V60.7361H225.359V62.7606H218.726V66.2576H221.121C222.595 66.2576 223.885 66.6257 224.806 67.3618C225.728 68.098 226.281 69.0183 226.281 70.4907C226.281 71.779 225.728 72.8833 224.806 73.6195C223.885 74.3557 222.595 74.7238 221.121 74.7238H216.33V74.5398Z" fill="black"/>
<path d="M230.519 74.5398L226.465 65.1533H229.045L231.624 71.9631L234.02 65.1533H236.415L231.993 76.5644C231.624 77.4846 231.256 78.2208 230.703 78.5889C230.15 78.957 229.413 79.3251 228.492 79.3251C228.123 79.3251 227.57 79.3251 227.202 79.141L227.386 77.1165C227.755 77.1165 227.939 77.3006 228.308 77.3006C228.86 77.3006 229.045 77.1165 229.413 76.9325C229.597 76.7484 229.782 76.3803 230.15 75.8282L230.519 74.5398Z" fill="black"/>
<path d="M239.734 72.6994H243.787V67.1779H240.655V68.0981C240.839 69.9386 240.471 71.411 239.734 72.6994ZM236.232 77.3006V72.6994H237.154C238.075 71.5951 238.444 69.9386 238.444 67.73V65.3374H245.999V72.8834H247.473V77.3006H245.446V74.5399H238.075V77.3006H236.232Z" fill="black"/>
<path d="M251.71 74.5398L247.656 65.1533H250.236L252.816 71.9631L255.211 65.1533H257.607L253.184 76.5644C252.816 77.4846 252.447 78.2208 251.894 78.5889C251.342 78.957 250.605 79.3251 249.683 79.3251C249.315 79.3251 248.762 79.3251 248.393 79.141L248.578 77.1165C248.946 77.1165 249.13 77.3006 249.499 77.3006C250.052 77.3006 250.236 77.1165 250.605 76.9325C250.789 76.7484 250.973 76.3803 251.342 75.8282L251.71 74.5398Z" fill="black"/>
<path d="M272.901 65.1533V72.6993H274.191V77.3006H272.348V74.5398H258.896V65.1533H261.108V72.6993H264.609V65.1533H267.004V72.6993H270.505V65.1533H272.901Z" fill="black"/>
<path d="M277.506 68.8345H282.297C282.297 68.0983 282.113 67.7302 281.744 67.178C281.376 66.8099 280.823 66.4418 280.086 66.4418C279.349 66.4418 278.796 66.6259 278.243 67.178C277.875 67.7302 277.69 68.2823 277.506 68.8345ZM284.693 69.9388C284.693 70.1228 284.693 70.4909 284.693 70.4909H277.506C277.506 71.2271 277.875 71.7793 278.427 72.1474C278.98 72.5155 279.533 72.8836 280.27 72.8836C281.376 72.8836 282.113 72.5155 282.85 71.5952L284.508 72.8836C283.587 74.1719 282.297 74.724 280.454 74.724C278.98 74.724 277.69 74.356 276.769 73.4357C275.848 72.5155 275.295 71.4112 275.295 69.9388C275.295 68.4664 275.848 67.178 276.769 66.2578C277.69 65.3375 278.98 64.7854 280.27 64.7854C281.56 64.7854 282.666 65.1535 283.587 66.0737C284.324 66.994 284.693 68.2823 284.693 69.9388Z" fill="black"/>
<path d="M288.563 68.8345H293.354C293.354 68.0983 293.169 67.7302 292.801 67.178C292.432 66.8099 291.88 66.4418 291.143 66.4418C290.405 66.4418 289.853 66.6259 289.3 67.178C288.931 67.7302 288.563 68.2823 288.563 68.8345ZM295.749 69.9388C295.749 70.1228 295.749 70.4909 295.749 70.4909H288.563C288.563 71.2271 288.931 71.7793 289.484 72.1474C290.037 72.5155 290.59 72.8836 291.327 72.8836C292.432 72.8836 293.17 72.5155 293.907 71.5952L295.565 72.8836C294.644 74.1719 293.354 74.724 291.511 74.724C290.037 74.724 288.747 74.356 287.826 73.4357C286.904 72.5155 286.352 71.4112 286.352 69.9388C286.352 68.4664 286.904 67.178 287.826 66.2578C288.747 65.3375 290.037 64.7854 291.327 64.7854C292.617 64.7854 293.722 65.1535 294.644 66.0737C295.381 66.994 295.749 68.2823 295.749 69.9388Z" fill="black"/>
<path d="M224.256 85.9509L222.597 87.4233C222.413 87.2392 222.229 86.8711 221.86 86.6871C221.492 86.503 221.123 86.503 220.755 86.503C220.017 86.503 219.28 86.8711 218.912 87.4233C218.543 87.9754 218.175 88.7116 218.175 89.4478C218.175 90.184 218.359 90.9202 218.912 91.4723C219.465 92.0245 220.017 92.3926 220.939 92.3926C221.86 92.3926 222.413 92.0245 222.966 91.4723L224.44 92.9447C223.703 93.865 222.413 94.2331 220.939 94.2331C219.465 94.2331 218.359 93.865 217.253 92.9447C216.332 92.0245 215.779 90.9202 215.779 89.2638C215.779 87.7914 216.332 86.503 217.253 85.5828C218.175 84.6625 219.465 84.2944 220.755 84.2944C221.492 84.2944 222.044 84.4785 222.782 84.6625C223.334 85.0306 223.887 85.3987 224.256 85.9509Z" fill="black"/>
<path d="M228.125 87.2393C227.572 87.7914 227.388 88.5276 227.388 89.2638C227.388 90 227.572 90.7362 228.125 91.4724C228.678 92.0245 229.23 92.3926 230.152 92.3926C231.073 92.3926 231.626 92.0245 232.179 91.4724C232.731 90.9202 232.916 90.184 232.916 89.2638C232.916 88.5276 232.731 87.7914 232.179 87.2393C231.626 86.6871 231.073 86.319 230.152 86.319C229.23 86.319 228.493 86.6871 228.125 87.2393ZM224.992 89.4478C224.992 87.9754 225.545 86.8712 226.466 85.9509C227.388 85.0307 228.678 84.4785 230.152 84.4785C231.626 84.4785 232.731 84.8466 233.837 85.9509C234.943 87.0552 235.311 87.9754 235.311 89.4478C235.311 90.9202 234.758 92.0245 233.837 93.1288C232.916 94.0491 231.626 94.6012 230.152 94.6012C228.678 94.6012 227.572 94.0491 226.466 93.1288C225.545 92.0245 224.992 90.9202 224.992 89.4478Z" fill="black"/>
<path d="M240.103 94.4172C238.26 94.4172 236.97 93.8651 236.049 92.7608L237.523 91.4724C237.707 91.8405 238.076 92.2086 238.629 92.3927C238.997 92.5767 239.55 92.7608 240.103 92.7608C241.393 92.7608 241.945 92.3927 241.945 91.6565C241.945 91.1043 241.761 90.9203 241.393 90.7362C241.024 90.5522 240.471 90.5522 239.734 90.5522H238.997V88.8958H239.734C241.024 88.8958 241.761 88.5277 241.761 87.7915C241.761 87.0553 241.208 86.6872 240.103 86.6872C239.181 86.6872 238.444 87.0553 237.892 87.7915L236.602 86.5031C237.523 85.3988 238.629 84.8467 240.471 84.8467C241.577 84.8467 242.498 85.0307 243.235 85.5829C243.972 85.951 244.157 86.6872 244.157 87.4234C244.157 87.9755 243.972 88.3436 243.604 88.8958C243.235 89.2639 242.867 89.632 242.314 89.632C242.867 89.816 243.42 90.0001 243.788 90.3681C244.157 90.7362 244.341 91.2884 244.341 91.8405C244.341 92.7608 243.972 93.497 243.235 94.0491C242.314 94.2332 241.393 94.4172 240.103 94.4172Z" fill="black"/>
<path d="M248.577 92.2086H252.631V86.6871H249.499V87.7914C249.683 89.4479 249.314 90.9203 248.577 92.2086ZM245.076 96.8098V92.2086H245.998C246.919 91.1043 247.287 89.4479 247.287 87.2393V84.6626H254.842V92.2086H256.317V96.8098H254.29V94.0491H246.919V96.8098H245.076Z" fill="black"/>
<path d="M263.871 90.1841V89.816H263.318C260.923 89.816 259.817 90.3682 259.817 91.4725C259.817 91.8405 260.002 92.2086 260.37 92.3927C260.739 92.5767 261.107 92.5767 261.476 92.5767C262.213 92.5767 262.95 92.3927 263.318 92.0246C263.503 91.4725 263.871 90.9203 263.871 90.1841ZM263.871 94.2332V93.1289C263.687 93.497 263.318 93.8651 262.766 94.2332C262.213 94.4172 261.66 94.6013 260.923 94.6013C260.002 94.6013 259.265 94.4172 258.527 93.8651C257.79 93.3129 257.422 92.5767 257.422 91.6565C257.422 91.1044 257.606 90.7363 257.79 90.1841C257.975 89.816 258.343 89.4479 258.712 89.2639C259.08 89.0798 259.633 88.8958 260.186 88.7117C260.739 88.5277 261.292 88.5277 261.844 88.5277C262.397 88.5277 262.95 88.5277 263.687 88.5277V88.3436C263.687 87.7915 263.503 87.4234 263.134 87.0553C262.766 86.6872 262.213 86.6872 261.66 86.6872C260.739 86.6872 259.817 87.0553 259.08 87.7915L257.79 86.3191C258.896 85.3988 260.186 84.8467 261.844 84.8467C262.581 84.8467 263.318 85.0307 263.871 85.2148C264.424 85.3988 264.793 85.7669 265.161 86.135C265.53 86.5031 265.714 86.8712 265.714 87.4234C265.898 87.7915 265.898 88.3436 265.898 88.8958V94.6013H263.871V94.2332Z" fill="black"/>
<path d="M270.323 88.5276H275.114C275.114 87.7914 274.929 87.4233 274.561 86.8712C274.192 86.5031 273.639 86.135 272.902 86.135C272.165 86.135 271.612 86.319 271.06 86.8712C270.691 87.2392 270.323 87.7914 270.323 88.5276ZM277.509 89.6319C277.509 89.8159 277.509 90.184 277.509 90.184H270.323C270.323 90.9202 270.691 91.4724 271.244 91.8405C271.797 92.2086 272.349 92.5767 273.087 92.5767C274.192 92.5767 274.929 92.2086 275.666 91.2883L277.325 92.5767C276.403 93.865 275.114 94.4172 273.271 94.4172C271.797 94.4172 270.507 94.0491 269.585 93.1288C268.664 92.2086 268.111 91.1043 268.111 89.6319C268.111 88.1595 268.664 86.8712 269.585 85.9509C270.507 85.0307 271.797 84.4785 273.087 84.4785C274.376 84.4785 275.482 84.8466 276.403 85.7669C276.956 86.6871 277.509 87.9754 277.509 89.6319Z" fill="black"/>
<path d="M281.38 94.2331V86.6871H278.432V84.6626H286.724V86.6871H283.775V94.2331H281.38Z" fill="black"/>
<path d="M296.121 85.9509L294.462 87.4233C294.278 87.2392 294.094 86.8711 293.725 86.6871C293.357 86.503 292.988 86.503 292.62 86.503C291.883 86.503 291.146 86.8711 290.777 87.4233C290.409 87.9754 290.04 88.7116 290.04 89.4478C290.04 90.184 290.224 90.9202 290.777 91.4723C291.33 92.0245 291.883 92.3926 292.804 92.3926C293.725 92.3926 294.278 92.0245 294.831 91.4723L296.305 92.9447C295.568 93.865 294.278 94.2331 292.804 94.2331C291.33 94.2331 290.224 93.865 289.119 92.9447C288.197 92.0245 287.645 90.9202 287.645 89.2638C287.645 87.7914 288.197 86.503 289.119 85.5828C290.04 84.6625 291.33 84.2944 292.62 84.2944C293.357 84.2944 293.91 84.4785 294.647 84.6625C295.2 85.0306 295.752 85.3987 296.121 85.9509Z" fill="black"/>
<path d="M301.279 89.0798H303.121V86.5032H301.279C300.542 86.5032 299.989 86.6872 299.62 86.8713C299.252 87.0553 299.067 87.4234 299.067 87.7915C299.067 88.1596 299.252 88.5277 299.62 88.7117C299.989 88.8958 300.542 89.0798 301.279 89.0798ZM296.672 94.2332L299.067 90.7363C297.593 90.3682 297.04 89.4479 297.04 87.9755C297.04 87.0553 297.409 86.3191 298.146 85.767C298.883 85.2148 299.804 85.0308 300.91 85.0308H305.701V94.4173H303.306V91.1044H301.647L299.804 94.4173H296.672V94.2332Z" fill="black"/>
</svg>
