<svg width="32" height="32" viewBox="0 0 32 32" fill="none" xmlns="http://www.w3.org/2000/svg">
<g opacity="0.8">
<path fill-rule="evenodd" clip-rule="evenodd" d="M16 32C24.8366 32 32 24.8366 32 16C32 7.16344 24.8366 0 16 0C7.16344 0 0 7.16344 0 16C0 24.8366 7.16344 32 16 32ZM27 15.9972C27 19.0689 26.7081 20.9571 26.0247 22.1282C25.3348 23.3778 24.527 23.7708 22.8783 23.8863C21.7149 23.9542 18.7946 24 16.0027 24C13.2044 24 10.2828 23.9543 9.1086 23.8855C7.47493 23.7708 6.66701 23.3784 5.97791 22.1424C5.29279 20.948 5 19.052 5 16.0084C5 12.9474 5.29138 11.0609 5.97193 9.8626C6.67011 8.61047 7.49112 8.21326 9.111 8.11849C10.2314 8.04251 12.9966 8 16.0027 8C19.0023 8 21.7662 8.04252 22.8783 8.1179C24.5073 8.21303 25.3281 8.60936 26.0202 9.85803C26.7108 11.0605 27 12.9378 27 15.9972ZM24.2833 10.8496C23.9603 10.265 23.7714 10.1735 22.7524 10.1139C21.6926 10.0421 18.9547 10 16.0027 10C13.0442 10 10.3051 10.0421 9.23709 10.1145C8.22844 10.1735 8.03675 10.2663 7.7149 10.8434C7.24754 11.6664 7 13.269 7 15.9972C7 18.727 7.24886 20.3385 7.71873 21.1578C8.03565 21.7262 8.22601 21.8186 9.23703 21.8897C10.3487 21.9547 13.2421 22 16.0027 22C18.757 22 21.6489 21.9547 22.7501 21.8904C23.7738 21.8187 23.9614 21.7274 24.2855 21.141C24.7522 20.3408 25 18.7383 25 16.0084C25 13.2577 24.7535 11.664 24.2833 10.8496ZM19 16L14 13V19L19 16Z" fill="white"/>
</g>
</svg>
